<svg width="151" height="36" viewBox="0 0 151 36" fill="none" xmlns="http://www.w3.org/2000/svg">
<g style="mix-blend-mode:multiply">
<path d="M30.8989 26.4533C35.572 26.4533 39.3603 22.6686 39.3603 18C39.3603 13.3314 35.572 9.54675 30.8989 9.54675C26.2258 9.54675 22.4375 13.3314 22.4375 18C22.4375 22.6686 26.2258 26.4533 30.8989 26.4533Z" fill="#9488EC"/>
</g>
<path d="M25.5525 36C23.2372 36 21.0482 34.9486 19.5749 33.1402C19.4907 33.0981 19.4486 33.014 19.4065 32.9299C17.9331 30.9112 16.0387 29.229 13.8497 27.9673C11.7028 26.7056 9.38751 25.9486 6.94592 25.6542C6.86172 25.6542 6.77753 25.6122 6.69334 25.6122C2.86256 25.1075 0 21.8692 0 18C0 14.257 2.77837 11.0187 6.48285 10.4299C6.56705 10.3878 6.65124 10.3879 6.77753 10.3458C9.26122 10.0935 11.6607 9.29439 13.8497 8.03271C15.9967 6.81308 17.8489 5.1729 19.2802 3.19626C19.3223 3.15421 19.3644 3.11215 19.4065 3.07009C20.8798 1.13551 23.1531 0 25.5525 0C29.8043 0 33.2562 3.4486 33.2562 7.69626C33.2562 8.74766 33.0457 9.75701 32.6248 10.7243C32.2038 11.6495 31.6565 12.3224 31.1514 12.9953C30.1411 14.257 29.2991 15.3505 29.2991 17.9579C29.2991 20.5234 30.1411 21.5748 31.1093 22.8364C31.6565 23.5093 32.2038 24.1822 32.5827 25.1075C32.5827 25.1495 32.6248 25.1916 32.6248 25.2336C33.0457 26.2009 33.2562 27.2523 33.2562 28.2617C33.2983 32.5514 29.8043 36 25.5525 36ZM21.2166 31.3318C21.2587 31.3738 21.3008 31.4159 21.3429 31.5C22.3532 32.8458 23.9108 33.6028 25.5525 33.6028C28.4572 33.6028 30.8567 31.2477 30.8567 28.3037C30.8567 27.5467 30.6883 26.8318 30.3936 26.1168C30.3936 26.0748 30.3515 26.0327 30.3515 25.9907C30.099 25.4019 29.678 24.9393 29.257 24.3505C28.2046 23.0467 26.8996 21.4065 26.8996 17.9579C26.8996 14.5093 28.2046 12.8271 29.2991 11.4813C29.7622 10.8925 30.1832 10.3458 30.4778 9.75701C30.7725 9.08411 30.8988 8.41121 30.8988 7.69626C30.8988 4.79439 28.5414 2.3972 25.5946 2.3972C23.8687 2.3972 22.3111 3.19626 21.3008 4.62617C21.2587 4.66822 21.2166 4.71028 21.1745 4.79439C19.5328 6.98131 17.47 8.78972 15.1126 10.1355C12.671 11.5234 10.0611 12.4065 7.32478 12.743C7.24059 12.785 7.1564 12.785 7.1143 12.785C4.46222 13.1215 2.48369 15.3505 2.48369 18C2.48369 20.6916 4.54642 22.9626 7.24059 23.215C7.32478 23.215 7.40898 23.257 7.53527 23.257C10.2294 23.5935 12.7552 24.4766 15.1126 25.8224C17.5121 27.2523 19.5749 29.1028 21.2166 31.3318Z" fill="#D93497"/>
<path d="M6.73547 25.2758C5.93564 25.2758 5.09371 25.1075 4.12549 24.8131L4.92532 22.5421C8.88239 23.93 10.5662 20.986 13.3867 14.0468C14.818 10.5141 16.4597 6.60286 18.9434 3.65894L20.7957 5.21501C18.5646 7.86454 17.0912 11.4393 15.6599 14.8879C13.5551 20.0187 11.4082 25.2758 6.73547 25.2758Z" fill="#D93497"/>
<path d="M142.747 15.4683H144.967V16.3317H145.508C145.703 16.0292 145.975 15.7853 146.326 15.6C146.686 15.4146 147.115 15.3219 147.611 15.3219C148.137 15.3219 148.609 15.4244 149.028 15.6292C149.447 15.8244 149.802 16.0975 150.094 16.4488C150.386 16.8 150.61 17.2146 150.766 17.6927C150.922 18.1707 151 18.6829 151 19.2292C151 19.8244 150.917 20.3658 150.752 20.8536C150.586 21.3414 150.352 21.7561 150.051 22.0975C149.749 22.4292 149.388 22.6878 148.97 22.8731C148.561 23.0585 148.113 23.1512 147.626 23.1512C147.119 23.1512 146.686 23.0585 146.326 22.8731C145.975 22.6878 145.708 22.439 145.523 22.1268H144.967V25.2H142.747V15.4683ZM146.881 17.3561C146.589 17.3561 146.326 17.4048 146.092 17.5024C145.858 17.6 145.654 17.7317 145.479 17.8975C145.313 18.0634 145.187 18.2634 145.099 18.4975C145.011 18.7219 144.967 18.9658 144.967 19.2292C144.967 19.4927 145.011 19.7414 145.099 19.9756C145.187 20.2097 145.313 20.4097 145.479 20.5756C145.654 20.7414 145.858 20.8731 146.092 20.9707C146.326 21.0683 146.589 21.117 146.881 21.117C147.173 21.117 147.436 21.0683 147.67 20.9707C147.903 20.8731 148.103 20.7414 148.269 20.5756C148.434 20.4097 148.561 20.2097 148.648 19.9756C148.746 19.7414 148.794 19.4927 148.794 19.2292C148.794 18.9658 148.746 18.7219 148.648 18.4975C148.561 18.2634 148.434 18.0634 148.269 17.8975C148.103 17.7317 147.903 17.6 147.67 17.5024C147.436 17.4048 147.173 17.3561 146.881 17.3561Z" fill="#08050D"/>
<path d="M133.832 15.4683H136.052V16.3317H136.593C136.788 16.0292 137.06 15.7853 137.411 15.6C137.771 15.4146 138.2 15.3219 138.696 15.3219C139.222 15.3219 139.694 15.4244 140.113 15.6292C140.532 15.8244 140.887 16.0975 141.179 16.4488C141.471 16.8 141.695 17.2146 141.851 17.6927C142.007 18.1707 142.085 18.6829 142.085 19.2292C142.085 19.8244 142.002 20.3658 141.837 20.8536C141.671 21.3414 141.437 21.7561 141.135 22.0975C140.834 22.4292 140.473 22.6878 140.055 22.8731C139.646 23.0585 139.198 23.1512 138.711 23.1512C138.204 23.1512 137.771 23.0585 137.411 22.8731C137.06 22.6878 136.792 22.439 136.607 22.1268H136.052V25.2H133.832V15.4683ZM137.966 17.3561C137.674 17.3561 137.411 17.4048 137.177 17.5024C136.943 17.6 136.739 17.7317 136.564 17.8975C136.398 18.0634 136.271 18.2634 136.184 18.4975C136.096 18.7219 136.052 18.9658 136.052 19.2292C136.052 19.4927 136.096 19.7414 136.184 19.9756C136.271 20.2097 136.398 20.4097 136.564 20.5756C136.739 20.7414 136.943 20.8731 137.177 20.9707C137.411 21.0683 137.674 21.117 137.966 21.117C138.258 21.117 138.521 21.0683 138.755 20.9707C138.988 20.8731 139.188 20.7414 139.353 20.5756C139.519 20.4097 139.646 20.2097 139.733 19.9756C139.831 19.7414 139.879 19.4927 139.879 19.2292C139.879 18.9658 139.831 18.7219 139.733 18.4975C139.646 18.2634 139.519 18.0634 139.353 17.8975C139.188 17.7317 138.988 17.6 138.755 17.5024C138.521 17.4048 138.258 17.3561 137.966 17.3561Z" fill="#08050D"/>
<path d="M125.91 20.7658C125.91 20.0049 126.159 19.4146 126.655 18.9951C127.152 18.5658 127.926 18.3512 128.978 18.3512H130.774V18.3219C130.774 17.9024 130.652 17.6 130.409 17.4146C130.175 17.2292 129.859 17.1366 129.46 17.1366C129.06 17.1366 128.758 17.2244 128.554 17.4C128.349 17.5658 128.213 17.7756 128.145 18.0292H126.012C126.051 17.639 126.149 17.278 126.305 16.9463C126.46 16.6146 126.679 16.3317 126.962 16.0975C127.244 15.8536 127.595 15.6634 128.014 15.5268C128.442 15.3902 128.939 15.3219 129.503 15.3219C130.652 15.3219 131.519 15.5951 132.103 16.1414C132.697 16.678 132.994 17.4195 132.994 18.3658V23.0049H130.774V22.3463H130.234C130.058 22.5512 129.825 22.7366 129.533 22.9024C129.24 23.0683 128.831 23.1512 128.306 23.1512C127.916 23.1512 127.57 23.0927 127.269 22.9756C126.967 22.8488 126.714 22.678 126.509 22.4634C126.314 22.2488 126.163 21.9951 126.056 21.7024C125.959 21.4097 125.91 21.0975 125.91 20.7658ZM128.116 20.5463C128.116 20.8 128.213 20.9951 128.408 21.1317C128.612 21.2585 128.9 21.3219 129.27 21.3219C129.542 21.3219 129.8 21.2927 130.044 21.2341C130.297 21.1756 130.54 21.0731 130.774 20.9268V19.7853H129.255C128.895 19.7853 128.612 19.8488 128.408 19.9756C128.213 20.1024 128.116 20.2927 128.116 20.5463Z" fill="#08050D"/>
<path d="M114.014 19.2292C114.014 18.6829 114.106 18.1707 114.291 17.6927C114.486 17.2146 114.759 16.8 115.109 16.4488C115.46 16.0975 115.883 15.8244 116.38 15.6292C116.886 15.4244 117.456 15.3219 118.089 15.3219C118.722 15.3219 119.287 15.4244 119.783 15.6292C120.289 15.8244 120.718 16.0975 121.068 16.4488C121.419 16.8 121.687 17.2146 121.872 17.6927C122.057 18.1707 122.149 18.6829 122.149 19.2292C122.149 19.7756 122.057 20.2878 121.872 20.7658C121.687 21.2439 121.419 21.6585 121.068 22.0097C120.718 22.3609 120.289 22.639 119.783 22.8439C119.287 23.0488 118.722 23.1512 118.089 23.1512C117.456 23.1512 116.886 23.0488 116.38 22.8439C115.883 22.639 115.46 22.3609 115.109 22.0097C114.759 21.6585 114.486 21.2439 114.291 20.7658C114.106 20.2878 114.014 19.7756 114.014 19.2292ZM116.219 19.2292C116.219 19.7658 116.39 20.2146 116.73 20.5756C117.071 20.9366 117.524 21.117 118.089 21.117C118.371 21.117 118.624 21.0683 118.848 20.9707C119.072 20.8731 119.267 20.7414 119.433 20.5756C119.598 20.4097 119.725 20.2097 119.812 19.9756C119.9 19.7414 119.944 19.4927 119.944 19.2292C119.944 18.9658 119.9 18.7219 119.812 18.4975C119.725 18.2634 119.598 18.0634 119.433 17.8975C119.267 17.7317 119.072 17.6 118.848 17.5024C118.624 17.4048 118.371 17.3561 118.089 17.3561C117.806 17.3561 117.548 17.4048 117.315 17.5024C117.091 17.6 116.896 17.7317 116.73 17.8975C116.565 18.0634 116.438 18.2634 116.351 18.4975C116.263 18.7219 116.219 18.9658 116.219 19.2292Z" fill="#08050D"/>
<path d="M108.506 15.4683H109.675C109.694 15.0097 109.762 14.6146 109.879 14.2829C110.006 13.9414 110.191 13.6634 110.434 13.4488C110.687 13.2244 111.009 13.0585 111.398 12.9512C111.798 12.8439 112.275 12.7902 112.83 12.7902H113.779V14.4585H112.903C112.533 14.4585 112.275 14.5414 112.129 14.7073C111.983 14.8634 111.9 15.117 111.88 15.4683H113.779V17.5024H111.88V23.0049H109.675V17.5024H108.506V15.4683Z" fill="#08050D"/>
<path d="M100.854 23.0049V15.4683H103.074V16.1122H103.614C103.809 15.878 104.038 15.6878 104.301 15.5414C104.573 15.3951 104.953 15.3219 105.44 15.3219C106.287 15.3219 106.93 15.5853 107.368 16.1122C107.806 16.6292 108.025 17.3609 108.025 18.3073V23.0049H105.82V18.7902C105.82 18.3122 105.713 17.9561 105.498 17.7219C105.284 17.478 104.943 17.3561 104.476 17.3561C104.135 17.3561 103.853 17.4 103.629 17.4878C103.415 17.5658 103.23 17.6634 103.074 17.7805V23.0049H100.854Z" fill="#08050D"/>
<path d="M99.95 23.0049H97.7298V15.4683H99.95V23.0049ZM97.6275 13.7707C97.6275 13.4292 97.7395 13.1512 97.9635 12.9366C98.1972 12.7122 98.4942 12.6 98.8545 12.6C99.2148 12.6 99.5069 12.7122 99.7309 12.9366C99.9548 13.1512 100.067 13.4292 100.067 13.7707C100.067 14.0927 99.9548 14.3658 99.7309 14.5902C99.5069 14.8049 99.2148 14.9122 98.8545 14.9122C98.4942 14.9122 98.1972 14.8049 97.9635 14.5902C97.7395 14.3658 97.6275 14.0927 97.6275 13.7707Z" fill="#08050D"/>
<path d="M93.9491 21.9658C93.9491 21.6536 94.0611 21.3756 94.285 21.1317C94.5187 20.8878 94.8206 20.7658 95.1906 20.7658C95.5704 20.7658 95.8723 20.8878 96.0962 21.1317C96.3299 21.3756 96.4468 21.6536 96.4468 21.9658C96.4468 22.278 96.3299 22.5561 96.0962 22.8C95.8723 23.0341 95.5704 23.1512 95.1906 23.1512C95.0056 23.1512 94.8352 23.1171 94.6794 23.0488C94.5333 22.9805 94.4019 22.8927 94.285 22.7853C94.1779 22.678 94.0952 22.5561 94.0367 22.4195C93.9783 22.2731 93.9491 22.1219 93.9491 21.9658Z" fill="#08050D"/>
<path d="M85.4711 19.2292C85.4711 18.6829 85.5636 18.1707 85.7486 17.6927C85.9434 17.2146 86.216 16.8 86.5666 16.4488C86.9171 16.0975 87.3407 15.8244 87.8374 15.6292C88.3437 15.4244 88.9134 15.3219 89.5463 15.3219C90.1793 15.3219 90.744 15.4244 91.2407 15.6292C91.747 15.8244 92.1755 16.0975 92.526 16.4488C92.8766 16.8 93.1444 17.2146 93.3294 17.6927C93.5144 18.1707 93.6069 18.6829 93.6069 19.2292C93.6069 19.7756 93.5144 20.2878 93.3294 20.7658C93.1444 21.2439 92.8766 21.6585 92.526 22.0097C92.1755 22.3609 91.747 22.639 91.2407 22.8439C90.744 23.0488 90.1793 23.1512 89.5463 23.1512C88.9134 23.1512 88.3437 23.0488 87.8374 22.8439C87.3407 22.639 86.9171 22.3609 86.5666 22.0097C86.216 21.6585 85.9434 21.2439 85.7486 20.7658C85.5636 20.2878 85.4711 19.7756 85.4711 19.2292ZM87.6767 19.2292C87.6767 19.7658 87.8471 20.2146 88.1879 20.5756C88.5287 20.9366 88.9815 21.117 89.5463 21.117C89.8287 21.117 90.0819 21.0683 90.3058 20.9707C90.5298 20.8731 90.7246 20.7414 90.8901 20.5756C91.0556 20.4097 91.1822 20.2097 91.2699 19.9756C91.3575 19.7414 91.4013 19.4927 91.4013 19.2292C91.4013 18.9658 91.3575 18.7219 91.2699 18.4975C91.1822 18.2634 91.0556 18.0634 90.8901 17.8975C90.7246 17.7317 90.5298 17.6 90.3058 17.5024C90.0819 17.4048 89.8287 17.3561 89.5463 17.3561C89.2639 17.3561 89.0059 17.4048 88.7722 17.5024C88.5482 17.6 88.3534 17.7317 88.1879 17.8975C88.0224 18.0634 87.8958 18.2634 87.8081 18.4975C87.7205 18.7219 87.6767 18.9658 87.6767 19.2292Z" fill="#08050D"/>
<path d="M73.2811 23.0049V15.4683H75.5013V16.1268H76.0417C76.2073 15.9024 76.4215 15.7122 76.6844 15.5561C76.9473 15.4 77.3076 15.3219 77.7653 15.3219C78.2035 15.3219 78.5784 15.4 78.89 15.5561C79.2016 15.7024 79.4548 15.917 79.6495 16.2H80.2045C80.3993 15.9463 80.6476 15.7366 80.9495 15.5707C81.2611 15.4048 81.6555 15.3219 82.1326 15.3219C83.0187 15.3219 83.7004 15.5756 84.1775 16.0829C84.6546 16.5805 84.8932 17.3219 84.8932 18.3073V23.0049H82.6876V18.7463C82.6876 18.3073 82.5854 17.9707 82.3809 17.7366C82.1862 17.4927 81.8551 17.3707 81.3877 17.3707C81.1345 17.3707 80.9105 17.4097 80.7158 17.4878C80.521 17.5561 80.3409 17.6439 80.1753 17.7512C80.1851 17.8292 80.1899 17.9122 80.1899 18C80.1899 18.078 80.1899 18.1561 80.1899 18.2341V23.0049H77.9844V18.7463C77.9844 18.3073 77.887 17.9707 77.6922 17.7366C77.5072 17.4927 77.2005 17.3707 76.772 17.3707C76.4604 17.3707 76.2073 17.4146 76.0125 17.5024C75.8177 17.5805 75.6473 17.6731 75.5013 17.7805V23.0049H73.2811Z" fill="#08050D"/>
<path d="M67.1944 15.4683L68.7135 20.5024H68.9472L70.5247 15.4683H72.8763L70.4663 23.0049H67.1068L64.6967 15.4683H67.1944Z" fill="#08050D"/>
<path d="M60.8316 23.1512C60.2279 23.1512 59.6777 23.0488 59.1811 22.8439C58.6845 22.639 58.2609 22.3609 57.9103 22.0097C57.5598 21.6585 57.2871 21.2439 57.0924 20.7658C56.8976 20.2878 56.8003 19.7756 56.8003 19.2292C56.8003 18.6829 56.8976 18.1707 57.0924 17.6927C57.2871 17.2146 57.5598 16.8 57.9103 16.4488C58.2609 16.0975 58.6845 15.8244 59.1811 15.6292C59.6777 15.4244 60.2279 15.3219 60.8316 15.3219C61.4646 15.3219 62.0245 15.4244 62.5114 15.6292C63.008 15.8244 63.4267 16.0975 63.7675 16.4488C64.1181 16.8 64.381 17.2097 64.5563 17.678C64.7413 18.1366 64.8338 18.6292 64.8338 19.1561C64.8338 19.2731 64.8289 19.3805 64.8192 19.478C64.8192 19.5756 64.8143 19.6634 64.8046 19.7414H58.9328C59.001 20.2488 59.1957 20.6439 59.5171 20.9268C59.8384 21.2 60.2766 21.3366 60.8316 21.3366C61.2504 21.3366 61.6009 21.2683 61.8833 21.1317C62.1754 20.9853 62.3848 20.7756 62.5114 20.5024H64.7316C64.6244 20.8829 64.4589 21.239 64.2349 21.5707C64.011 21.8927 63.7335 22.1707 63.4024 22.4049C63.081 22.639 62.7013 22.8244 62.2631 22.9609C61.8346 23.0878 61.3575 23.1512 60.8316 23.1512ZM62.599 18.3219C62.4822 17.9805 62.2777 17.6975 61.9855 17.4731C61.6934 17.2488 61.3088 17.1366 60.8316 17.1366C60.3642 17.1366 59.9747 17.2488 59.6631 17.4731C59.3515 17.6878 59.1373 17.9707 59.0204 18.3219H62.599Z" fill="#08050D"/>
<path d="M48.5356 23.0049V12.9073H52.3333C52.976 12.9073 53.5457 12.9902 54.0423 13.1561C54.5389 13.3219 54.9576 13.5561 55.2984 13.8585C55.6392 14.161 55.8973 14.5219 56.0726 14.9414C56.2576 15.361 56.3501 15.8292 56.3501 16.3463C56.3501 16.9317 56.2089 17.4731 55.9265 17.9707C55.6441 18.4585 55.2205 18.8488 54.6557 19.1414L56.8467 23.0049H54.1007L52.2895 19.8439H50.8581V23.0049H48.5356ZM52.3187 17.8097C52.903 17.8097 53.3363 17.6731 53.6187 17.4C53.9108 17.1171 54.0569 16.7658 54.0569 16.3463C54.0569 15.9268 53.9108 15.5902 53.6187 15.3366C53.3363 15.0731 52.903 14.9414 52.3187 14.9414H50.7996V17.8097H52.3187Z" fill="#08050D"/>
</svg>
