<svg width="20" height="12" viewBox="0 0 20 12" fill="none" xmlns="http://www.w3.org/2000/svg">
<path d="M3.99593 0.00152585L1.30879 0.0029043C1.30879 0.0029043 1.15502 -0.00627952 0.969318 0.0194458C0.783612 0.0451711 0.509267 0.0571127 0.227947 0.394386L0.226646 0.395764L0.225345 0.397143C-0.0248887 0.700426 -0.0153405 1.05341 0.0159406 1.24765C0.0471062 1.44117 0.117391 1.58675 0.117391 1.58675V1.58813C0.143226 1.6553 2.09431 6.72181 4.55391 9.44395C6.28884 11.3653 8.14433 11.9996 9.79684 11.9996H10.654C10.936 11.9996 11.1878 11.986 11.4669 11.8328C11.7459 11.6796 11.9858 11.2568 11.9858 10.9285C11.9858 10.5748 11.994 10.2319 12.0366 10.0408C12.0763 9.86234 12.061 9.90615 12.0769 9.90573C12.0928 9.9094 12.1219 9.91654 12.177 9.94295C12.2958 9.99987 12.4794 10.1269 12.683 10.2945C13.0895 10.629 13.5711 11.1143 14.1111 11.4896C14.8845 12.0329 15.7239 11.9996 15.7239 11.9996H18.4917L18.5216 11.9968C18.5216 11.9968 18.9463 11.9866 19.3826 11.7032C19.6008 11.5615 19.8601 11.3016 19.9471 10.912C20.0342 10.5224 19.923 10.1136 19.7091 9.7541C19.631 9.62224 19.2516 9.03952 17.7373 7.61474C17.3461 7.24702 17.0793 6.98672 16.9738 6.84832C16.9364 6.79918 16.9332 6.80392 16.9257 6.80145C16.9345 6.77732 17.022 6.58206 17.2561 6.25972C17.5 5.92376 17.8707 5.45567 18.3473 4.81234C18.9548 3.9921 19.381 3.20339 19.6493 2.53788C19.7834 2.20513 19.8784 1.90319 19.9354 1.62948C19.9924 1.35577 20.0378 1.12827 19.9536 0.803787C19.8908 0.562248 19.7202 0.345919 19.553 0.231728C19.3858 0.117537 19.2299 0.0745244 19.09 0.0470149C18.8101 -0.00800689 18.5632 0.00152585 18.333 0.00152585C17.851 0.00152585 15.7083 0.0194458 15.5314 0.0194458C15.3238 0.0194458 14.9927 0.111061 14.8395 0.204159C14.459 0.435056 14.34 0.751406 14.34 0.751406L14.3036 0.81895L14.2828 0.894765C14.2828 0.894765 13.7949 2.56758 13.293 3.42975H13.2917C12.7015 4.44543 12.2613 4.84831 12.0678 4.96259C12.0472 4.97473 12.0586 4.96828 12.0444 4.97637C12.0292 4.92964 12.0101 4.8653 11.9975 4.74617C11.9692 4.47782 11.9858 4.09991 11.9858 3.73438C11.9858 2.72202 12.0576 2.09073 11.978 1.49302C11.9383 1.19416 11.837 0.861336 11.606 0.60529C11.3751 0.349243 11.0767 0.223208 10.7788 0.150399H10.7775C10.467 0.074622 10.1325 0.00954268 9.3286 0.00152585C8.3044 -0.00859488 7.63737 0.0250558 7.04466 0.304786L7.03816 0.308921L7.03295 0.311678C6.79876 0.428264 6.61415 0.5619 6.45156 0.740378C6.37027 0.829617 6.27383 0.894603 6.20704 1.17873C6.17364 1.32079 6.16998 1.58957 6.3215 1.8073C6.47301 2.02503 6.68535 2.0907 6.81054 2.10781C6.78745 2.10463 6.90904 2.13299 7.00304 2.18224C7.09704 2.2315 7.17866 2.30242 7.19944 2.33112V2.33249C7.19075 2.32053 7.28102 2.55828 7.30479 2.77498C7.32856 2.99168 7.3243 3.16646 7.3243 3.16646L7.323 3.20919L7.3269 3.25192C7.3269 3.25192 7.36778 3.73147 7.34641 4.22649C7.33572 4.47401 7.3062 4.72313 7.26707 4.87575C7.265 4.88382 7.26406 4.88099 7.26187 4.88815C7.09514 4.76474 6.71068 4.33473 6.18103 3.40769C5.69141 2.55014 5.23285 1.0078 5.23285 1.0078L5.22245 0.973337L5.21074 0.940254C5.21074 0.940254 5.12525 0.595711 4.74771 0.314435C4.39385 0.0504246 4.05706 0.013932 4.05706 0.013932L3.99593 0.00152585ZM3.84116 1.41306C3.87925 1.42782 3.95888 1.45823 3.97382 1.46545L3.95821 1.41582L3.97902 1.46682L3.98163 1.4682V1.46958H3.98293C3.94946 1.44477 3.97783 1.4694 3.98163 1.4751C4.00002 1.5416 4.40664 3.02605 5.04166 4.13827C5.62014 5.15078 6.04752 5.71802 6.51399 6.05708C6.98002 6.39582 7.60667 6.36091 7.9252 6.18528C8.35089 5.95098 8.46988 5.56591 8.55211 5.24517C8.63435 4.92443 8.66369 4.59903 8.67698 4.29128C8.70233 3.70409 8.65897 3.22374 8.65487 3.17611C8.65553 3.14958 8.66146 2.92017 8.62755 2.61094C8.59337 2.29936 8.5321 1.91215 8.27117 1.52334C8.56344 1.47732 8.72571 1.40724 9.3156 1.41306C10.0679 1.42057 10.1823 1.45383 10.4784 1.5261C10.6396 1.56551 10.6575 1.59816 10.6423 1.58124C10.627 1.56431 10.6409 1.55301 10.6592 1.69013C10.6957 1.96433 10.654 2.66756 10.654 3.73438C10.654 4.03511 10.6266 4.4592 10.6735 4.90331C10.7204 5.34715 10.8512 5.91506 11.3576 6.24731C11.6461 6.43656 12.1973 6.50164 12.7168 6.19493C13.2363 5.88822 13.7694 5.29983 14.4259 4.16998C15.0743 3.05596 15.4621 1.59131 15.5041 1.4365C15.5041 1.4365 15.5115 1.4314 15.5158 1.42823C15.5276 1.42883 15.5126 1.43098 15.5314 1.43098C15.7781 1.43098 17.8827 1.41306 18.333 1.41306C18.4569 1.41306 18.5113 1.42013 18.6035 1.42409C18.5663 1.57647 18.5161 1.75391 18.4241 1.98237C18.2076 2.51931 17.8362 3.21576 17.299 3.94115C16.836 4.56609 16.4763 5.01936 16.2012 5.39818C15.9262 5.777 15.7101 6.0758 15.6199 6.50784C15.5296 6.93988 15.7018 7.42717 15.9372 7.73604C16.1726 8.04492 16.4639 8.30506 16.8529 8.67063C18.318 10.0492 18.5584 10.4664 18.5814 10.5054V10.5067C18.6062 10.5483 18.5901 10.5065 18.5996 10.5274C18.5166 10.5549 18.4177 10.5859 18.4084 10.5881H15.7135H15.7096C15.7096 10.5881 15.2139 10.5708 14.846 10.3124L14.8447 10.311H14.8434C14.4541 10.0408 13.9836 9.57737 13.4998 9.17928C13.2579 8.98024 13.0116 8.79373 12.7259 8.65685C12.4402 8.51997 12.0782 8.42293 11.6971 8.54382C11.1455 8.71878 10.8394 9.2751 10.7411 9.71688C10.6705 10.034 10.681 10.3098 10.6787 10.5867C10.6597 10.5877 10.6761 10.5881 10.654 10.5881H9.79684C8.44332 10.5881 7.03521 10.1502 5.51639 8.468C3.54179 6.28263 1.78005 2.05645 1.51559 1.41444L3.84116 1.41306ZM15.4573 1.41858C15.4452 1.42143 15.4798 1.4242 15.508 1.42685C15.5042 1.42904 15.5083 1.42491 15.5028 1.42823C15.5022 1.41643 15.4735 1.41474 15.4573 1.41858Z" fill="#08050D"/>
</svg>
