<svg width="22" height="22" viewBox="0 0 22 22" fill="none" xmlns="http://www.w3.org/2000/svg">
<path d="M11.8774 1.00002C11.82 1.00059 11.7633 1.01246 11.7105 1.03498C11.6577 1.05749 11.6098 1.0902 11.5696 1.13122C11.5295 1.17225 11.4978 1.2208 11.4764 1.27408C11.4551 1.32736 11.4444 1.38433 11.4451 1.44174C11.4831 4.65298 11.6707 6.91426 12.9851 8.42815C14.2995 9.94205 16.6025 10.5142 20.5582 10.5574C20.6192 10.5581 20.6798 10.546 20.7359 10.5219C20.792 10.4977 20.8424 10.4621 20.8839 10.4173C20.9253 10.3724 20.9569 10.3194 20.9766 10.2615C20.9963 10.2037 21.0036 10.1424 20.9982 10.0816C20.5614 5.27183 16.7306 1.43981 11.9209 1.00173C11.9064 1.00044 11.8919 0.99987 11.8774 1.00002ZM10.0833 1.00258C10.0722 1.00273 10.0611 1.0033 10.05 1.00429C5.25388 1.45515 1.43711 5.28138 1.00176 10.0816C0.996279 10.1424 1.00362 10.2037 1.02331 10.2615C1.04299 10.3194 1.07459 10.3724 1.11606 10.4173C1.15753 10.4621 1.20794 10.4977 1.26405 10.5219C1.32015 10.546 1.3807 10.5581 1.44177 10.5574C5.38577 10.512 7.68275 9.9387 8.99265 8.42474C10.3025 6.91079 10.4885 4.65152 10.5267 1.4443C10.5274 1.38596 10.5164 1.32807 10.4943 1.27406C10.4722 1.22004 10.4396 1.171 10.3982 1.12982C10.3569 1.08865 10.3077 1.05617 10.2536 1.03432C10.1995 1.01246 10.1416 1.00167 10.0833 1.00258ZM12.3566 1.96531C16.3313 2.55949 19.4493 5.68052 20.0371 9.65693C16.5445 9.56426 14.6402 9.00313 13.6443 7.85597C12.665 6.72811 12.4196 4.78543 12.3566 1.96531ZM9.61599 1.96873C9.55293 4.7847 9.30739 6.72582 8.33179 7.85341C7.33955 9.00022 5.44282 9.56125 1.96279 9.65608C2.54956 5.6892 5.65461 2.57295 9.61599 1.96873ZM1.44177 11.4426C1.3807 11.4418 1.32015 11.4539 1.26405 11.4781C1.20794 11.5022 1.15753 11.5379 1.11606 11.5827C1.07459 11.6276 1.04299 11.6806 1.02331 11.7384C1.00362 11.7962 0.996279 11.8575 1.00176 11.9184C1.43756 16.719 5.25385 20.5453 10.05 20.9957C10.1109 21.0013 10.1723 20.994 10.2302 20.9744C10.2882 20.9548 10.3413 20.9232 10.3863 20.8817C10.4312 20.8402 10.4669 20.7898 10.4911 20.7336C10.5153 20.6774 10.5274 20.6168 10.5267 20.5557C10.4885 17.3484 10.3025 15.0892 8.99265 13.5752C7.68275 12.0612 5.38578 11.4878 1.44177 11.4426ZM20.5582 11.4426C16.6025 11.4858 14.2994 12.0579 12.9851 13.5718C11.6708 15.0857 11.4833 17.347 11.4451 20.5582C11.4444 20.6193 11.4565 20.6798 11.4806 20.736C11.5048 20.7921 11.5404 20.8425 11.5852 20.8839C11.6301 20.9254 11.6831 20.957 11.7409 20.9767C11.7988 20.9964 11.8601 21.0037 11.9209 20.9982C16.7302 20.5602 20.561 16.729 20.9982 11.9192C21.0038 11.8583 20.9965 11.7969 20.9769 11.739C20.9573 11.6811 20.9257 11.6279 20.8842 11.583C20.8427 11.5381 20.7923 11.5023 20.7361 11.4781C20.6799 11.4539 20.6193 11.4418 20.5582 11.4426ZM20.0371 12.343C19.4489 16.3195 16.3309 19.4405 12.3566 20.0347C12.4198 17.2145 12.6651 15.2719 13.6443 14.144C14.6402 12.9968 16.5445 12.4357 20.0371 12.343ZM1.96279 12.3439C5.44281 12.4385 7.33955 12.9997 8.33179 14.1466C9.3074 15.2742 9.55293 17.2153 9.61599 20.0312C5.65465 19.4274 2.54987 16.3112 1.96279 12.3439Z" fill="#08050D" stroke="#08050D" stroke-width="0.5"/>
</svg>
